<svg version="1.1" id="Layer_1" xmlns="http://www.w3.org/2000/svg" xmlns:xlink="http://www.w3.org/1999/xlink" x="0px" y="0px"
	 width="100%" viewBox="0 0 68 68" enable-background="new 0 0 68 68" xml:space="preserve">
<path fill="#000000" opacity="1.000000" stroke="none" 
	d="
M40.000000,1.000000 
	C49.644817,1.000000 59.289639,1.000000 68.967224,1.000000 
	C68.967224,23.593554 68.967224,46.187164 68.967224,68.890388 
	C46.333591,68.890388 23.666882,68.890388 1.000000,68.890388 
	C1.000000,59.561794 1.000000,50.249554 1.368309,40.379196 
	C2.167318,40.460644 2.735088,41.046902 3.007722,41.747936 
	C6.063068,49.604267 11.264599,55.459064 18.973450,58.989407 
	C25.434244,61.948185 32.115330,62.641148 39.405437,60.922829 
	C48.344387,66.768318 55.722176,63.807526 59.938259,59.402939 
	C64.427422,54.713058 66.777176,45.959484 59.924953,38.634354 
	C62.265549,34.124004 61.243565,30.241619 60.580738,25.712688 
	C59.308926,17.022755 54.609417,11.644429 48.161396,6.920239 
	C45.450348,4.933970 42.721020,2.972658 40.000000,1.000000 
z"/>
<path fill="#3E9900" opacity="1.000000" stroke="none" 
	d="
M39.021965,60.850407 
	C32.115330,62.641148 25.434244,61.948185 18.973450,58.989407 
	C11.264599,55.459064 6.063068,49.604267 3.007722,41.747936 
	C2.735088,41.046902 2.167318,40.460644 1.368309,39.910538 
	C1.000000,34.645069 1.000000,29.290140 1.368482,23.557335 
	C6.010264,13.440742 12.448061,5.902421 22.830088,2.326212 
	C23.016842,2.261882 22.949030,1.458525 23.000000,1.000000 
	C28.354929,1.000000 33.709858,1.000000 39.532394,1.000000 
	C42.721020,2.972658 45.450348,4.933970 48.161396,6.920239 
	C54.609417,11.644429 59.308926,17.022755 60.580738,25.712688 
	C61.243565,30.241619 62.265549,34.124004 59.647079,38.532806 
	C58.518623,37.925293 57.746479,37.036652 57.280655,35.913486 
	C57.422131,33.753586 57.257294,31.828215 57.067406,29.537252 
	C56.975006,28.442852 56.907658,27.714041 56.897316,26.608217 
	C56.238579,24.185440 55.522835,22.139675 54.757622,19.759600 
	C53.487530,17.588058 52.266918,15.750831 50.915333,13.655958 
	C50.203991,12.899677 49.623623,12.401040 48.918976,11.650950 
	C48.193054,10.996085 47.591408,10.592672 46.743275,10.047796 
	C46.020752,9.608155 45.544720,9.309978 44.955128,8.810479 
	C44.658047,8.338743 44.404282,8.182533 43.744453,7.997067 
	C42.275402,7.562630 41.142162,7.271651 39.966499,6.719882 
	C39.624775,6.357671 39.325481,6.256250 38.785515,6.096745 
	C38.544838,6.038661 38.055790,6.116277 37.825699,6.070315 
	C37.595608,6.024353 37.126595,6.008621 37.004837,5.814916 
	C36.738747,5.284348 36.488159,5.157582 35.836868,5.167263 
	C35.340588,5.108191 35.138760,5.122770 34.706436,5.087333 
	C34.475941,5.037316 34.013924,5.132461 33.750923,5.102651 
	C33.312603,5.092821 33.137283,5.112800 32.562656,5.159059 
	C31.131149,5.162915 30.098953,5.140493 28.779436,5.082751 
	C28.301004,5.076087 28.109896,5.104743 27.612793,5.101069 
	C26.828686,5.389662 26.350573,5.710584 25.650555,6.044303 
	C25.428654,6.057100 24.989517,6.126304 24.738049,6.072418 
	C24.320545,6.061283 24.154510,6.104033 23.718246,6.117399 
	C23.301229,6.397985 23.154438,6.707956 22.670418,7.088015 
	C21.811281,7.444337 21.289373,7.730573 20.527294,8.140654 
	C19.837963,8.558697 19.388803,8.852895 18.577538,9.097328 
	C16.111032,10.674632 14.006632,12.301700 11.653439,14.111735 
	C10.924231,15.209249 10.443813,16.123795 9.993689,17.028912 
	C10.023981,17.019485 10.025067,17.082926 9.804239,17.131775 
	C9.280748,17.334974 9.137151,17.581816 9.105675,18.209747 
	C9.098723,18.689125 9.138719,18.879906 8.991127,19.364845 
	C5.411172,22.706402 3.881324,26.358170 5.121564,31.227859 
	C5.125230,31.742559 5.157393,31.947456 5.135792,32.507431 
	C5.108033,33.579029 5.134039,34.295544 5.136415,35.332146 
	C5.448200,36.430473 5.783617,37.208714 6.085116,38.319714 
	C6.418138,39.450882 6.785077,40.249294 7.196267,41.302689 
	C7.522878,41.751007 7.805238,41.944340 8.199000,42.360954 
	C8.557888,42.805485 8.801586,43.030838 9.039861,43.612152 
	C9.642681,44.844685 10.247138,45.725353 10.877317,46.911858 
	C11.358119,47.765434 11.813196,48.313171 12.459601,49.002216 
	C13.007046,49.456333 13.363163,49.769146 13.820591,50.398525 
	C14.605675,51.167637 15.289448,51.620178 16.114838,52.364616 
	C17.539568,53.393360 18.822681,54.130211 20.324310,54.923286 
	C20.542826,54.979519 20.989351,54.918488 21.033936,55.217979 
	C22.384487,55.929775 23.690454,56.342083 25.254856,56.801712 
	C25.687250,56.869419 25.861212,56.889801 26.135361,57.147079 
	C27.148767,57.547756 28.061987,57.711529 29.236570,57.902954 
	C29.672127,57.909389 29.846321,57.888172 30.275127,57.903397 
	C30.674995,57.848721 30.820255,57.757603 31.253063,57.628296 
	C31.732283,57.564472 31.923958,57.538837 32.311268,57.637104 
	C32.506901,57.761005 32.968151,57.719223 33.227074,57.807556 
	C33.689919,57.609749 33.893837,57.323608 34.454338,57.023773 
	C36.214600,58.290188 37.618282,59.570297 39.021965,60.850407 
z"/>
<path fill="#000000" opacity="1.000000" stroke="none" 
	d="
M22.531218,1.000000 
	C22.949030,1.458525 23.016842,2.261882 22.830088,2.326212 
	C12.448061,5.902421 6.010264,13.440742 1.368482,23.089729 
	C1.000000,15.740432 1.000000,8.480865 1.000000,1.000000 
	C8.019269,1.000000 15.040852,1.000000 22.531218,1.000000 
z"/>
<path fill="#FFFFFF" opacity="1.000000" stroke="none" 
	d="
M39.405437,60.922829 
	C37.618282,59.570297 36.214600,58.290188 34.221157,57.050484 
	C33.312588,57.197170 33.091507,57.406612 32.968151,57.719223 
	C32.968151,57.719223 32.506901,57.761005 32.345062,57.399834 
	C32.183224,57.038658 31.969746,56.609970 31.993200,56.350548 
	C32.016052,55.570629 32.015450,55.050125 32.322422,54.443169 
	C32.708775,53.944416 32.787552,53.532116 33.183743,53.200256 
	C33.980179,53.030766 34.459198,52.780838 34.938213,52.530907 
	C34.404877,51.999371 33.871536,51.467838 33.519936,50.503410 
	C34.108829,47.694141 34.515980,45.317768 35.216469,42.803593 
	C36.373550,41.451458 37.237297,40.237125 38.378311,38.894176 
	C38.815037,38.182560 38.974495,37.599567 39.427368,36.976936 
	C40.138119,36.609238 40.555454,36.281178 41.335022,35.974007 
	C42.846081,35.324409 43.994915,34.653919 45.518433,34.027748 
	C46.870899,34.037571 47.848686,34.003071 49.184078,34.135628 
	C50.030796,34.161114 50.519905,34.019535 51.144989,34.046894 
	C51.971233,34.375217 52.661503,34.534603 53.466648,34.770523 
	C53.581520,34.847057 53.845383,34.765896 54.115021,34.879547 
	C55.247887,35.378136 56.111111,35.763077 56.974339,36.148018 
	C57.746479,37.036652 58.518623,37.925293 59.568642,38.915478 
	C66.777176,45.959484 64.427422,54.713058 59.938259,59.402939 
	C55.722176,63.807526 48.344387,66.768318 39.405437,60.922829 
M42.603821,38.871632 
	C36.958717,42.327927 34.841148,50.744110 38.335934,55.834156 
	C41.359524,60.237919 47.903622,62.455975 52.762684,60.723949 
	C56.635433,59.343498 61.072075,52.880058 60.925678,48.831841 
	C60.721001,43.172081 57.402584,39.277718 51.040855,38.063126 
	C48.525467,37.582886 45.800365,38.201080 42.603821,38.871632 
z"/>
<path fill="#040306" opacity="1.000000" stroke="none" 
	d="
M5.150061,30.918058 
	C3.881324,26.358170 5.411172,22.706402 9.285069,19.432583 
	C10.714135,19.506668 11.661670,19.807178 12.813759,20.280033 
	C13.344609,20.554462 13.670905,20.656548 14.353140,20.887794 
	C16.806927,21.743328 18.904776,22.469702 20.998219,23.545628 
	C20.994631,24.596359 20.995451,25.297541 20.747925,25.999247 
	C20.332769,26.000032 20.165960,26.000292 19.651514,26.011787 
	C14.998366,26.893278 18.027838,28.543802 18.566038,30.008511 
	C16.923012,30.942543 15.598680,31.831282 14.229366,32.555931 
	C14.027028,31.994562 13.869672,31.597279 13.267353,31.301235 
	C11.922916,31.500189 11.023442,31.597900 10.098221,31.507622 
	C10.072474,31.319630 9.965560,30.955507 9.794868,30.669189 
	C8.132804,30.561268 6.641432,30.739662 5.150061,30.918058 
z"/>
<path fill="#101545" opacity="1.000000" stroke="none" 
	d="
M48.826469,33.968575 
	C47.848686,34.003071 46.870899,34.037571 45.339020,33.753006 
	C44.185284,31.601875 43.585636,29.769800 43.334557,27.953667 
	C44.789669,27.316189 45.896217,26.662773 47.350948,25.846565 
	C50.746189,26.117592 53.793247,26.551413 56.840309,26.985233 
	C56.907658,27.714041 56.975006,28.442852 57.000504,29.899475 
	C55.920895,32.006824 54.883137,33.386360 53.845383,34.765896 
	C53.845383,34.765896 53.581520,34.847057 53.531082,34.468018 
	C52.800621,33.743450 52.120605,33.397926 51.184170,32.860126 
	C50.227325,33.101425 49.526897,33.535000 48.826469,33.968575 
z"/>
<path fill="#161519" opacity="1.000000" stroke="none" 
	d="
M56.897312,26.608219 
	C53.793247,26.551413 50.746189,26.117592 47.308868,25.503384 
	C47.277843,23.221031 47.637077,21.119066 48.246468,19.005844 
	C48.663548,18.997190 48.830471,18.999792 49.146801,19.287336 
	C50.457584,20.372885 51.304001,23.442339 53.336288,20.085070 
	C54.023041,20.083267 54.415066,20.088591 54.807095,20.093912 
	C55.522835,22.139675 56.238579,24.185440 56.897312,26.608219 
z"/>
<path fill="#41331F" opacity="1.000000" stroke="none" 
	d="
M18.939644,9.147092 
	C19.388803,8.852895 19.837963,8.558697 20.665470,8.449647 
	C21.682457,8.788740 22.321096,8.942686 23.061377,9.369556 
	C23.726908,9.726901 24.290798,9.811321 24.915337,9.913977 
	C24.975983,9.932213 25.064184,10.023109 25.036955,10.432173 
	C25.011017,12.205151 25.012306,13.569063 24.715248,14.983669 
	C23.943996,15.365452 23.471088,15.696541 23.032808,16.329811 
	C23.120684,16.827646 23.173933,17.023302 22.967464,17.297176 
	C22.357054,17.316298 22.006359,17.257198 21.230497,17.143234 
	C20.237356,17.051889 19.669382,17.015409 18.905663,16.946684 
	C18.709913,16.914436 18.317150,16.858164 18.238842,16.568201 
	C18.063541,15.890025 17.966549,15.501812 18.162601,14.854320 
	C18.616980,12.779058 18.778313,10.963075 18.939644,9.147092 
z"/>
<path fill="#0A0806" opacity="1.000000" stroke="none" 
	d="
M18.577538,9.097328 
	C18.778313,10.963075 18.616980,12.779058 17.770508,14.836058 
	C16.039972,15.096821 14.994575,15.116565 13.738091,15.090248 
	C13.527005,15.044186 13.096717,15.083783 12.853500,14.940887 
	C12.374266,14.508251 12.138248,14.218509 11.902231,13.928767 
	C14.006632,12.301700 16.111032,10.674632 18.577538,9.097328 
z"/>
<path fill="#988D6F" opacity="1.000000" stroke="none" 
	d="
M20.105795,54.867058 
	C18.822681,54.130211 17.539568,53.393360 16.135750,51.995308 
	C16.042734,50.842564 16.070419,50.351021 16.399395,49.919102 
	C17.439512,49.675838 18.178339,49.372959 19.194714,48.854851 
	C19.745615,47.761772 20.018970,46.883923 20.646297,45.933357 
	C21.234621,45.916477 21.468969,45.972317 21.554626,46.396355 
	C21.588511,48.224415 21.771086,49.684280 21.975674,51.469280 
	C22.039585,52.226875 22.081484,52.659336 22.097441,53.290771 
	C22.071501,53.489742 22.015419,53.887108 21.771509,53.849960 
	C21.527599,53.812817 21.036633,53.862202 20.751514,53.836391 
	C20.346195,54.162743 20.225994,54.514900 20.105795,54.867058 
z"/>
<path fill="#3D3637" opacity="1.000000" stroke="none" 
	d="
M54.757622,19.759600 
	C54.415066,20.088591 54.023041,20.083267 53.094433,19.810490 
	C51.371033,19.362822 50.184212,19.182610 48.997391,19.002396 
	C48.830471,18.999792 48.663548,18.997190 48.016842,18.972187 
	C47.537056,18.949785 47.075253,18.902857 47.059471,18.587370 
	C47.043545,17.849976 47.043392,17.428068 47.299683,16.875553 
	C48.037926,16.163754 48.519726,15.582561 49.305317,14.968744 
	C50.088173,14.595283 50.567238,14.254441 51.046303,13.913601 
	C52.266918,15.750831 53.487530,17.588058 54.757622,19.759600 
z"/>
<path fill="#7A909A" opacity="1.000000" stroke="none" 
	d="
M6.119035,37.986954 
	C5.783617,37.208714 5.448200,36.430473 5.443210,35.289909 
	C6.533383,34.604420 7.293130,34.281258 8.444357,33.970860 
	C9.882661,34.008507 10.929482,34.033394 11.943869,34.375080 
	C11.260548,35.787605 10.609663,36.883331 9.574394,37.979897 
	C8.166352,37.982811 7.142694,37.984882 6.119035,37.986954 
z"/>
<path fill="#342927" opacity="1.000000" stroke="none" 
	d="
M49.001526,15.001368 
	C48.519726,15.582561 48.037926,16.163754 46.922028,16.871714 
	C45.535061,17.002028 44.782188,17.005573 44.041351,16.721020 
	C44.328709,15.953104 44.604034,15.473292 45.243866,14.924520 
	C46.068832,13.300126 46.529297,11.744693 46.989761,10.189260 
	C47.591408,10.592672 48.193054,10.996085 48.905651,12.038963 
	C49.011578,13.452743 49.006554,14.227056 49.001526,15.001368 
z"/>
<path fill="#FDFCFC" opacity="1.000000" stroke="none" 
	d="
M29.066757,5.118071 
	C30.098953,5.140493 31.131149,5.162915 32.509850,5.537917 
	C32.872463,6.902315 32.888569,7.914134 32.701569,9.051278 
	C32.246075,9.380280 32.049976,9.628437 31.605215,9.940986 
	C30.496630,9.420924 29.692995,8.880952 28.942060,7.939672 
	C29.018761,6.731601 29.042759,5.924836 29.066757,5.118071 
z"/>
<path fill="#7D8579" opacity="1.000000" stroke="none" 
	d="
M6.085116,38.319714 
	C7.142694,37.984882 8.166352,37.982811 9.588770,37.984119 
	C9.987530,37.987503 9.998507,38.008858 10.001646,38.421883 
	C10.004183,40.211159 10.003581,41.587402 9.764872,43.045151 
	C9.365010,43.171192 9.203254,43.215740 9.041497,43.260284 
	C8.801586,43.030838 8.557888,42.805485 8.084674,42.142433 
	C7.685866,41.415199 7.450222,41.197556 7.152016,41.047703 
	C6.785077,40.249294 6.418138,39.450882 6.085116,38.319714 
z"/>
<path fill="#0C0B0A" opacity="1.000000" stroke="none" 
	d="
M54.115021,34.879547 
	C54.883137,33.386360 55.920895,32.006824 57.025555,30.265064 
	C57.257294,31.828215 57.422131,33.753586 57.280655,35.913490 
	C56.111111,35.763077 55.247887,35.378136 54.115021,34.879547 
z"/>
<path fill="#767E99" opacity="1.000000" stroke="none" 
	d="
M12.609204,20.107689 
	C11.661670,19.807178 10.714135,19.506668 9.472658,19.138420 
	C9.138719,18.879906 9.098723,18.689125 9.300480,18.125427 
	C9.824236,17.616699 9.985182,17.393505 10.025067,17.082926 
	C10.025067,17.082926 10.023981,17.019485 10.364645,17.101122 
	C11.443286,17.060280 12.181262,16.937801 13.142075,16.979183 
	C13.583114,17.436094 13.801318,17.729149 14.012583,18.349724 
	C14.003128,19.114004 14.000612,19.550762 13.650904,20.017902 
	C13.072208,20.068087 12.840706,20.087889 12.609204,20.107689 
z"/>
<path fill="#0E0E10" opacity="1.000000" stroke="none" 
	d="
M12.268274,48.860912 
	C11.813196,48.313171 11.358119,47.765434 10.928666,46.412308 
	C11.031803,44.945190 11.109315,44.283466 11.564034,43.707008 
	C13.212622,43.981949 14.484003,44.171623 15.584399,44.464115 
	C15.241201,44.892895 15.068991,45.218853 14.698641,45.528019 
	C14.500504,45.511223 14.113158,45.419888 13.952902,45.249226 
	C13.505033,45.349094 13.217420,45.619621 12.831809,46.162636 
	C12.787800,46.620468 12.841786,46.805813 12.720413,47.178020 
	C12.452794,47.863564 12.360534,48.362236 12.268274,48.860912 
z"/>
<path fill="#2D201E" opacity="1.000000" stroke="none" 
	d="
M46.743275,10.047796 
	C46.529297,11.744693 46.068832,13.300126 45.265114,14.538774 
	C44.609200,12.814467 44.296535,11.406945 44.050987,9.758093 
	C44.174667,9.359638 44.231224,9.202515 44.483997,9.059944 
	C44.680210,9.074496 45.068684,9.011800 45.068684,9.011800 
	C45.544720,9.309978 46.020752,9.608155 46.743275,10.047796 
z"/>
<path fill="#FCFCFC" opacity="1.000000" stroke="none" 
	d="
M28.975208,57.875301 
	C28.061987,57.711529 27.148767,57.547756 26.149887,56.804161 
	C26.052145,55.538223 26.040062,54.852112 26.313171,54.015072 
	C27.349285,53.592049 28.100204,53.319950 28.882483,53.451019 
	C28.934296,55.194557 28.954752,56.534931 28.975208,57.875301 
z"/>
<path fill="#FCFDFC" opacity="1.000000" stroke="none" 
	d="
M25.872458,6.031506 
	C26.350573,5.710584 26.828686,5.389662 27.634518,5.499093 
	C27.924000,7.267939 27.885763,8.606432 27.567327,9.940277 
	C26.913277,9.938237 26.539423,9.940845 26.106710,9.554520 
	C25.989386,8.120892 25.930922,7.076199 25.872458,6.031506 
z"/>
<path fill="#EEECED" opacity="1.000000" stroke="none" 
	d="
M21.036633,53.862202 
	C21.036633,53.862202 21.527599,53.812817 22.008011,53.962364 
	C22.651150,54.049057 22.813877,53.986206 23.218113,53.873863 
	C23.982008,53.854366 24.504393,53.884361 25.017235,54.269283 
	C25.003935,55.334270 25.000179,56.044327 24.996424,56.754387 
	C23.690454,56.342083 22.384487,55.929775 21.022091,54.952938 
	C20.989317,54.213005 21.012976,54.037605 21.036633,53.862202 
z"/>
<path fill="#E3E8E0" opacity="1.000000" stroke="none" 
	d="
M44.287785,9.045391 
	C44.231224,9.202515 44.174667,9.359638 43.743385,9.678131 
	C42.241230,9.741350 41.113800,9.643201 39.979488,9.224997 
	C39.984711,8.263518 39.996819,7.622096 40.008926,6.980673 
	C41.142162,7.271651 42.275402,7.562630 43.764816,8.229963 
	C44.120995,8.606318 44.287785,9.045391 44.287785,9.045391 
z"/>
<path fill="#FCFCFC" opacity="1.000000" stroke="none" 
	d="
M32.014847,54.529625 
	C32.015450,55.050125 32.016052,55.570629 31.772022,56.470730 
	C31.340099,57.122383 31.152807,57.394436 30.965515,57.666489 
	C30.820255,57.757603 30.674995,57.848721 30.265890,57.503616 
	C30.034410,55.723839 30.066780,54.380276 30.358898,53.203369 
	C31.084047,53.756557 31.549448,54.143089 32.014847,54.529625 
z"/>
<path fill="#897C5E" opacity="1.000000" stroke="none" 
	d="
M16.098103,49.859482 
	C16.070419,50.351021 16.042734,50.842564 15.994134,51.703415 
	C15.289448,51.620178 14.605675,51.167637 13.902984,50.355255 
	C13.884066,49.995415 14.054692,49.923302 14.356654,49.780952 
	C15.112178,48.741936 15.565740,47.845272 16.057495,47.310966 
	C16.096493,48.402046 16.097298,49.130764 16.098103,49.859482 
z"/>
<path fill="#FDFDFE" opacity="1.000000" stroke="none" 
	d="
M34.013924,5.132461 
	C34.013924,5.132461 34.475941,5.037316 34.729332,5.446184 
	C35.320408,6.902744 35.658096,7.950436 36.181946,8.999902 
	C36.368111,9.001677 36.740448,9.001616 36.780548,9.217482 
	C36.820648,9.433348 36.777729,9.870358 36.477825,9.892057 
	C35.783573,9.982412 35.389229,10.051066 34.805988,10.012451 
	C34.617096,9.905182 34.183620,9.934224 34.125626,9.535403 
	C34.049725,7.801875 34.031826,6.467168 34.013924,5.132461 
z"/>
<path fill="#4D5F6B" opacity="1.000000" stroke="none" 
	d="
M5.121564,31.227859 
	C6.641432,30.739662 8.132804,30.561268 9.519597,30.685917 
	C9.231080,30.985882 9.047143,30.982803 8.634533,31.133772 
	C7.932663,31.833879 7.459466,32.379940 6.748772,32.859783 
	C6.070702,32.579826 5.630130,32.366089 5.189557,32.152351 
	C5.157393,31.947456 5.125230,31.742559 5.121564,31.227859 
z"/>
<path fill="#EFEFEF" opacity="1.000000" stroke="none" 
	d="
M24.854691,9.895741 
	C24.290798,9.811321 23.726908,9.726901 23.088213,9.023559 
	C23.011488,7.942400 23.009565,7.480164 23.007645,7.017927 
	C23.154438,6.707956 23.301229,6.397985 23.742682,6.380122 
	C24.294884,7.112671 24.552425,7.553113 24.873234,8.306844 
	C24.909233,9.045336 24.881962,9.470538 24.854691,9.895741 
z"/>
<path fill="#040708" opacity="1.000000" stroke="none" 
	d="
M11.186827,43.621738 
	C11.109315,44.283466 11.031803,44.945190 10.902943,46.106468 
	C10.247138,45.725353 9.642681,44.844685 9.039861,43.612152 
	C9.203254,43.215740 9.365010,43.171192 10.006252,43.098240 
	C10.485740,43.069832 10.976128,43.007923 11.043703,43.156261 
	C11.111278,43.304600 11.186827,43.621738 11.186827,43.621738 
z"/>
<path fill="#718793" opacity="1.000000" stroke="none" 
	d="
M5.135792,32.507431 
	C5.630130,32.366089 6.070702,32.579826 6.964738,32.990547 
	C7.629760,33.444382 7.841319,33.701241 8.052876,33.958096 
	C7.293130,34.281258 6.533383,34.604420 5.466841,34.969818 
	C5.134039,34.295544 5.108033,33.579029 5.135792,32.507431 
z"/>
<path fill="#2C2727" opacity="1.000000" stroke="none" 
	d="
M12.919239,16.815325 
	C12.181262,16.937801 11.443286,17.060280 10.334352,17.110550 
	C10.443813,16.123795 10.924231,15.209249 11.653439,14.111735 
	C12.138248,14.218509 12.374266,14.508251 12.805141,15.227619 
	C12.973081,16.043272 12.946160,16.429298 12.919239,16.815325 
z"/>
<path fill="#161515" opacity="1.000000" stroke="none" 
	d="
M33.750927,5.102651 
	C34.031826,6.467168 34.049725,7.801875 33.864273,9.521930 
	C33.488655,9.935523 33.316391,9.963768 33.128372,9.715590 
	C33.043304,9.268096 32.973991,9.097024 32.904675,8.925952 
	C32.888569,7.914134 32.872463,6.902315 32.909164,5.511638 
	C33.137283,5.112800 33.312603,5.092821 33.750927,5.102651 
z"/>
<path fill="#282827" opacity="1.000000" stroke="none" 
	d="
M30.099148,53.036713 
	C30.066780,54.380276 30.034410,55.723839 30.011280,57.467178 
	C29.846321,57.888172 29.672127,57.909389 29.236570,57.902954 
	C28.954752,56.534931 28.934296,55.194557 29.194595,53.464706 
	C29.683283,53.062389 29.891214,53.049553 30.099148,53.036713 
z"/>
<path fill="#312A1F" opacity="1.000000" stroke="none" 
	d="
M27.847527,9.944925 
	C27.885763,8.606432 27.924000,7.267939 27.940512,5.531423 
	C28.109896,5.104743 28.301004,5.076087 28.779436,5.082751 
	C29.042759,5.924836 29.018761,6.731601 28.933121,8.210710 
	C28.901367,9.243585 28.931257,9.604115 28.682583,9.968599 
	C28.218521,9.963343 28.033024,9.954134 27.847527,9.944925 
z"/>
<path fill="#383031" opacity="1.000000" stroke="none" 
	d="
M49.305321,14.968746 
	C49.006554,14.227056 49.011578,13.452743 49.029926,12.290417 
	C49.623623,12.401040 50.203991,12.899677 50.915333,13.655958 
	C50.567238,14.254441 50.088173,14.595283 49.305321,14.968746 
z"/>
<path fill="#6A6862" opacity="1.000000" stroke="none" 
	d="
M12.459600,49.002216 
	C12.360534,48.362236 12.452794,47.863564 13.048838,47.297981 
	C13.719976,48.128487 13.887334,49.025894 14.054691,49.923302 
	C14.054692,49.923302 13.884066,49.995415 13.801673,50.038689 
	C13.363163,49.769146 13.007046,49.456333 12.459600,49.002216 
z"/>
<path fill="#FCFCFC" opacity="1.000000" stroke="none" 
	d="
M36.740448,9.001616 
	C36.740448,9.001616 36.368111,9.001677 36.172478,8.623209 
	C36.028343,7.243465 36.079838,6.242190 36.131329,5.240914 
	C36.488159,5.157582 36.738747,5.284348 36.952744,6.190067 
	C36.928417,7.506488 36.834435,8.254052 36.740448,9.001616 
z"/>
<path fill="#8D8E8C" opacity="1.000000" stroke="none" 
	d="
M35.836868,5.167263 
	C36.079838,6.242190 36.028343,7.243465 35.986317,8.621433 
	C35.658096,7.950436 35.320408,6.902744 34.959824,5.496201 
	C35.138760,5.122770 35.340588,5.108191 35.836868,5.167263 
z"/>
<path fill="#E1E2E3" opacity="1.000000" stroke="none" 
	d="
M22.670418,7.088015 
	C23.009565,7.480164 23.011488,7.942400 22.986574,8.750635 
	C22.321096,8.942686 21.682457,8.788740 20.905640,8.325802 
	C21.289373,7.730573 21.811281,7.444337 22.670418,7.088015 
z"/>
<path fill="#EFEFEF" opacity="1.000000" stroke="none" 
	d="
M39.966499,6.719882 
	C39.996819,7.622096 39.984711,8.263518 39.761448,9.364994 
	C39.380749,9.792197 39.211212,9.759349 39.036777,9.369017 
	C39.029980,8.059299 39.028084,7.107064 39.026184,6.154830 
	C39.325481,6.256250 39.624775,6.357671 39.966499,6.719882 
z"/>
<path fill="#D4D4D4" opacity="1.000000" stroke="none" 
	d="
M38.785511,6.096745 
	C39.028084,7.107064 39.029980,8.059299 38.832008,9.450445 
	C38.632137,9.889357 38.191486,9.892279 38.134518,9.516081 
	C38.070297,8.132015 38.063042,7.124146 38.055790,6.116277 
	C38.055790,6.116277 38.544838,6.038661 38.785511,6.096745 
z"/>
<path fill="#565555" opacity="1.000000" stroke="none" 
	d="
M37.825699,6.070315 
	C38.063042,7.124146 38.070297,8.132015 37.780952,9.519412 
	C37.248814,9.889412 37.013271,9.879885 36.777729,9.870358 
	C36.777729,9.870358 36.820648,9.433348 36.780548,9.217482 
	C36.834435,8.254052 36.928417,7.506488 37.074501,6.383773 
	C37.126595,6.008621 37.595608,6.024353 37.825699,6.070315 
z"/>
<path fill="#2E251B" opacity="1.000000" stroke="none" 
	d="
M24.915337,9.913977 
	C24.881962,9.470538 24.909233,9.045336 24.956352,8.002642 
	C24.980639,6.965535 24.985079,6.545919 24.989517,6.126304 
	C24.989517,6.126304 25.428654,6.057100 25.650555,6.044303 
	C25.930922,7.076199 25.989386,8.120892 25.831367,9.574981 
	C25.431320,9.997288 25.247753,10.010199 25.064184,10.023109 
	C25.064184,10.023109 24.975983,9.932213 24.915337,9.913977 
z"/>
<path fill="#ECECEC" opacity="1.000000" stroke="none" 
	d="
M25.254856,56.801712 
	C25.000179,56.044327 25.003935,55.334270 25.264835,54.342937 
	C25.690645,54.096443 25.859312,54.131218 26.027981,54.165997 
	C26.040062,54.852112 26.052145,55.538223 26.049702,56.567261 
	C25.861212,56.889801 25.687250,56.869419 25.254856,56.801712 
z"/>
<path fill="#E1E2E3" opacity="1.000000" stroke="none" 
	d="
M24.738049,6.072418 
	C24.985079,6.545919 24.980639,6.965535 24.893084,7.689352 
	C24.552425,7.553113 24.294884,7.112671 24.012909,6.409507 
	C24.154510,6.104033 24.320545,6.061283 24.738049,6.072418 
z"/>
<path fill="#848C80" opacity="1.000000" stroke="none" 
	d="
M7.196266,41.302689 
	C7.450222,41.197556 7.685866,41.415199 7.973272,41.919151 
	C7.805238,41.944340 7.522878,41.751007 7.196266,41.302689 
z"/>
<path fill="#FDFCFC" opacity="1.000000" stroke="none" 
	d="
M20.751514,53.836391 
	C21.012976,54.037605 20.989317,54.213005 20.977505,54.653450 
	C20.989351,54.918488 20.542826,54.979519 20.324310,54.923290 
	C20.225994,54.514900 20.346195,54.162743 20.751514,53.836391 
z"/>
<path fill="#E3E3E3" opacity="1.000000" stroke="none" 
	d="
M31.253063,57.628296 
	C31.152807,57.394436 31.340099,57.122383 31.748569,56.730148 
	C31.969746,56.609970 32.183224,57.038658 32.149429,57.275932 
	C31.923958,57.538837 31.732283,57.564472 31.253063,57.628296 
z"/>
<path fill="#E3E3E3" opacity="1.000000" stroke="none" 
	d="
M33.227074,57.807556 
	C33.091507,57.406612 33.312588,57.197170 33.864578,57.064178 
	C33.893837,57.323608 33.689919,57.609749 33.227074,57.807556 
z"/>
<path fill="#515865" opacity="1.000000" stroke="none" 
	d="
M9.804239,17.131775 
	C9.985182,17.393505 9.824236,17.616699 9.347426,17.836828 
	C9.137151,17.581816 9.280748,17.334974 9.804239,17.131775 
z"/>
<path fill="#55462E" opacity="1.000000" stroke="none" 
	d="
M44.483997,9.059944 
	C44.287785,9.045391 44.120995,8.606318 44.100632,8.373423 
	C44.404282,8.182533 44.658047,8.338743 44.955128,8.810479 
	C45.068684,9.011800 44.680210,9.074496 44.483997,9.059944 
z"/>
<path fill="#3E9A00" opacity="1.000000" stroke="none" 
	d="
M42.887283,38.595379 
	C45.800365,38.201080 48.525467,37.582886 51.040855,38.063126 
	C57.402584,39.277718 60.721001,43.172081 60.925678,48.831841 
	C61.072075,52.880058 56.635433,59.343498 52.762684,60.723949 
	C47.903622,62.455975 41.359524,60.237919 38.335934,55.834156 
	C34.841148,50.744110 36.958717,42.327927 42.887283,38.595379 
M45.990131,42.792538 
	C45.977428,43.512627 45.964729,44.232712 45.252808,45.067333 
	C41.514870,48.282257 40.495331,52.612625 42.867329,55.199390 
	C45.304867,57.857647 51.995209,57.610977 54.679550,54.763885 
	C57.215778,52.073895 56.126137,48.037258 51.803947,44.498009 
	C51.605278,44.238918 51.353428,44.051144 51.032730,43.502178 
	C51.032730,43.502178 51.040733,43.069469 51.560390,42.785812 
	C53.522396,40.447765 51.839558,40.240063 49.440727,39.837177 
	C48.284809,40.201069 47.128887,40.564960 45.628189,41.148384 
	C45.743111,41.456017 45.858028,41.763653 45.990131,42.792538 
z"/>
<path fill="#0A0808" opacity="1.000000" stroke="none" 
	d="
M42.985992,27.937727 
	C43.585636,29.769800 44.185284,31.601875 44.964336,33.708691 
	C43.994915,34.653919 42.846081,35.324409 41.202850,35.651001 
	C39.403206,34.999897 38.097965,34.692696 36.418423,34.318089 
	C35.032784,34.230114 34.021439,34.209545 32.971764,33.920559 
	C32.887451,33.477318 32.841473,33.302498 32.850021,32.811287 
	C32.910343,32.280937 32.916145,32.066978 32.950539,31.867970 
	C32.979126,31.882919 32.931194,31.926113 33.201714,31.824028 
	C33.595825,31.369888 33.719421,31.017836 33.861595,30.340176 
	C34.531425,28.681940 35.182678,27.349312 35.883820,25.656466 
	C35.639263,24.144833 35.344822,22.993414 35.171642,21.661882 
	C35.488956,21.259647 35.726097,21.097681 36.378075,20.993004 
	C38.163307,20.631962 39.574783,20.273785 40.997971,20.301394 
	C41.668446,23.104029 42.327221,25.520878 42.985992,27.937727 
z"/>
<path fill="#8E8268" opacity="1.000000" stroke="none" 
	d="
M26.313171,54.015072 
	C25.859312,54.131218 25.690645,54.096443 25.274380,53.988010 
	C24.504393,53.884361 23.982008,53.854366 23.122492,53.690281 
	C22.622520,53.318943 22.401861,53.164146 22.123381,53.091801 
	C22.081484,52.659336 22.039585,52.226875 22.192085,51.311638 
	C22.594860,50.544239 22.803236,50.259613 23.432432,49.751141 
	C24.010466,49.251137 24.167681,48.974983 24.342384,49.066959 
	C24.238884,49.648941 24.117893,49.862785 24.252014,50.317162 
	C25.192463,50.678982 25.877802,50.800270 26.783701,50.834751 
	C27.326183,50.743729 27.633034,50.809650 28.167101,50.938301 
	C28.960161,50.614586 29.510935,50.298283 30.275280,50.059490 
	C30.488850,50.137001 30.929052,50.024292 31.071701,50.212482 
	C31.529303,50.246418 31.844254,50.092159 32.381546,49.949295 
	C32.603882,49.960686 33.041882,50.040768 33.161087,50.284042 
	C33.314163,50.704720 33.348038,50.882118 33.167877,51.243805 
	C32.924675,51.992001 32.895500,52.555908 32.866325,53.119816 
	C32.787552,53.532116 32.708775,53.944416 32.322422,54.443169 
	C31.549448,54.143089 31.084047,53.756557 30.358898,53.203369 
	C29.891214,53.049553 29.683283,53.062389 29.163239,53.061539 
	C28.100204,53.319950 27.349285,53.592049 26.313171,54.015072 
z"/>
<path fill="#865748" opacity="1.000000" stroke="none" 
	d="
M38.101048,39.022797 
	C37.237297,40.237125 36.373550,41.451458 34.896584,42.784248 
	C33.856529,42.901333 33.429691,42.899960 33.026031,42.587982 
	C33.345337,41.285103 33.641457,40.292828 33.956451,38.967743 
	C33.989716,38.413166 34.004105,38.191402 34.348473,37.959545 
	C35.118679,37.948654 35.558907,37.947861 36.184219,38.195343 
	C36.946552,38.636677 37.523800,38.829739 38.101048,39.022797 
z"/>
<path fill="#726D6D" opacity="1.000000" stroke="none" 
	d="
M33.002850,42.898590 
	C33.429691,42.899960 33.856529,42.901333 34.603252,42.922050 
	C34.515980,45.317768 34.108829,47.694141 33.561714,50.523006 
	C33.421745,50.975502 33.381908,51.059521 33.381908,51.059521 
	C33.348038,50.882118 33.314163,50.704720 33.143486,49.835014 
	C32.974628,47.944305 32.942581,46.745895 32.728645,45.512646 
	C32.546757,45.477802 32.518311,45.108219 32.538742,44.808426 
	C32.550701,44.308487 32.542229,44.108337 32.646912,43.653877 
	C32.841000,43.232574 32.921925,43.065582 33.002850,42.898590 
z"/>
<path fill="#946B59" opacity="1.000000" stroke="none" 
	d="
M38.378311,38.894176 
	C37.523800,38.829739 36.946552,38.636677 36.321480,37.942833 
	C36.622219,36.981297 36.970783,36.520550 37.582344,36.102142 
	C38.274879,36.435177 38.704418,36.725876 39.133953,37.016571 
	C38.974495,37.599567 38.815037,38.182560 38.378311,38.894176 
z"/>
<path fill="#535C61" opacity="1.000000" stroke="none" 
	d="
M39.427368,36.976936 
	C38.704418,36.725876 38.274879,36.435177 37.445702,35.837524 
	C36.961613,35.148872 36.877167,34.767185 36.792721,34.385494 
	C38.097965,34.692696 39.403206,34.999897 40.840622,35.630112 
	C40.555454,36.281178 40.138119,36.609238 39.427368,36.976936 
z"/>
<path fill="#312E26" opacity="1.000000" stroke="none" 
	d="
M33.167877,51.243805 
	C33.381908,51.059521 33.421745,50.975502 33.379971,50.955902 
	C33.871536,51.467838 34.404877,51.999371 34.938213,52.530907 
	C34.459198,52.780838 33.980179,53.030766 33.183746,53.200256 
	C32.895500,52.555908 32.924675,51.992001 33.167877,51.243805 
z"/>
<path fill="#0C0B0A" opacity="1.000000" stroke="none" 
	d="
M51.440586,33.052399 
	C52.120605,33.397926 52.800621,33.743450 53.416206,34.391483 
	C52.661503,34.534603 51.971233,34.375217 51.275013,33.852051 
	C51.269066,33.488270 51.440586,33.052399 51.440586,33.052399 
z"/>
<path fill="#2A262D" opacity="1.000000" stroke="none" 
	d="
M51.184170,32.860126 
	C51.440586,33.052399 51.269066,33.488270 51.139038,33.683113 
	C50.519905,34.019535 50.030796,34.161114 49.184078,34.135632 
	C49.526897,33.535000 50.227325,33.101425 51.184170,32.860126 
z"/>
<path fill="#1F2332" opacity="1.000000" stroke="none" 
	d="
M14.274348,32.720020 
	C15.598680,31.831282 16.923012,30.942543 18.845562,30.020924 
	C19.629480,29.991917 19.815176,29.995789 20.250378,29.999865 
	C20.499882,30.000069 20.999329,29.999128 21.001970,30.251791 
	C21.009459,30.672834 21.014307,30.841215 21.019291,31.342396 
	C21.343945,32.450005 21.668461,33.224812 22.020121,34.300571 
	C22.373026,35.076992 22.698786,35.552460 23.014469,36.272926 
	C23.004391,36.517921 23.008192,37.008312 22.767130,37.179253 
	C22.348845,37.898685 22.171623,38.447178 21.767271,39.093086 
	C21.255661,39.383640 21.062164,39.644325 20.714741,40.179440 
	C20.326727,40.785484 20.183619,41.184643 20.079704,41.543530 
	C20.118898,41.503258 20.193634,41.587200 19.994854,41.778519 
	C19.560844,42.246246 19.325617,42.522655 18.835644,42.799770 
	C18.414808,42.835930 18.248720,42.871380 18.068691,42.907051 
	C18.054749,42.907276 18.083719,42.891262 18.064693,42.583324 
	C17.659168,41.557663 17.272667,40.839935 16.819885,39.824577 
	C16.452194,38.996189 16.150784,38.465439 15.791988,37.607353 
	C15.158637,35.851891 14.582672,34.423756 14.071251,32.924423 
	C14.135796,32.853226 14.274348,32.720020 14.274348,32.720020 
z"/>
<path fill="#2C2E32" opacity="1.000000" stroke="none" 
	d="
M21.019154,31.009598 
	C21.014307,30.841215 21.009459,30.672834 21.002398,29.877117 
	C20.999176,28.499441 20.998167,27.749098 20.998478,26.748747 
	C20.998619,26.332066 20.997444,26.165394 20.996271,25.998722 
	C20.995451,25.297541 20.994631,24.596359 21.214996,23.302086 
	C21.889622,22.246960 22.343061,21.784924 22.813931,21.310326 
	C22.831360,21.297764 22.903305,21.349308 23.183975,21.585985 
	C23.792629,21.188503 24.120613,20.554344 24.814243,19.952095 
	C25.658041,20.088324 26.136196,20.192640 26.677288,20.694017 
	C26.989553,22.710009 27.238880,24.328939 27.477446,26.280933 
	C27.509377,26.832008 27.552065,27.050026 27.504833,27.470112 
	C27.619404,28.044035 27.823893,28.415888 28.014427,29.090176 
	C28.000046,29.594452 27.999615,29.796289 27.834438,30.187145 
	C27.401762,30.573122 27.133831,30.770079 26.448246,30.974781 
	C24.360111,30.991550 22.689632,31.000574 21.019154,31.009598 
z"/>
<path fill="#7684A1" opacity="1.000000" stroke="none" 
	d="
M22.796503,21.322889 
	C22.343061,21.784924 21.889622,22.246960 21.219402,22.952534 
	C18.904776,22.469702 16.806927,21.743328 14.351896,20.695030 
	C13.994715,20.373108 13.998097,19.987520 13.998097,19.987520 
	C14.000612,19.550762 14.003128,19.114004 14.393191,18.349644 
	C15.034594,18.017918 15.288448,18.013794 15.716059,17.982700 
	C16.132992,17.944145 16.362537,17.881960 16.870411,17.872856 
	C17.361107,18.032829 17.559841,18.089119 17.973616,18.303299 
	C18.530022,18.489389 18.871386,18.517588 19.428419,18.606071 
	C19.644089,18.666357 20.091650,18.649572 20.335438,18.840664 
	C20.739843,19.161541 20.900461,19.291328 21.173084,19.510052 
	C21.433563,19.718700 21.579659,19.841249 22.011530,20.291315 
	C22.465294,20.851622 22.630898,21.087255 22.796503,21.322889 
z"/>
<path fill="#566D7C" opacity="1.000000" stroke="none" 
	d="
M8.444357,33.970860 
	C7.841319,33.701241 7.629760,33.444382 7.202235,33.056763 
	C7.459466,32.379940 7.932663,31.833879 8.762362,31.373407 
	C9.453897,31.537868 9.788932,31.616741 10.123967,31.695614 
	C11.023442,31.597900 11.922916,31.500189 13.148805,31.686867 
	C13.443647,32.237610 13.412076,32.503960 13.099888,32.932434 
	C12.538283,33.415798 12.257294,33.737038 11.976305,34.058281 
	C10.929482,34.033394 9.882661,34.008507 8.444357,33.970860 
z"/>
<path fill="#1E2432" opacity="1.000000" stroke="none" 
	d="
M20.000874,29.999660 
	C19.815176,29.995789 19.629480,29.991917 19.164257,29.975628 
	C18.027838,28.543802 14.998366,26.893278 19.651485,26.261787 
	C19.998970,26.667404 19.998844,26.834255 19.998924,27.375830 
	C19.999712,28.500256 20.000294,29.249958 20.000874,29.999660 
z"/>
<path fill="#162230" opacity="1.000000" stroke="none" 
	d="
M13.380504,32.770309 
	C13.412076,32.503960 13.443647,32.237610 13.593767,31.585627 
	C13.869672,31.597279 14.027028,31.994562 14.229366,32.555931 
	C14.274348,32.720020 14.135796,32.853226 13.914423,32.868813 
	C13.693051,32.884399 13.380504,32.770309 13.380504,32.770309 
z"/>
<path fill="#0C0C13" opacity="1.000000" stroke="none" 
	d="
M19.998718,27.001106 
	C19.998844,26.834255 19.998970,26.667404 19.999125,26.250553 
	C20.165960,26.000292 20.332769,26.000032 20.747925,25.999247 
	C20.997444,26.165394 20.998619,26.332066 20.749220,26.749376 
	C20.498646,27.000015 19.998718,27.001106 19.998718,27.001106 
z"/>
<path fill="#7F8AA5" opacity="1.000000" stroke="none" 
	d="
M13.650904,20.017902 
	C13.998097,19.987520 13.994715,20.373108 13.995958,20.565870 
	C13.670905,20.656548 13.344609,20.554462 12.813759,20.280033 
	C12.840706,20.087889 13.072208,20.068087 13.650904,20.017902 
z"/>
<path fill="#162230" opacity="1.000000" stroke="none" 
	d="
M10.098221,31.507622 
	C9.788932,31.616741 9.453897,31.537868 8.991034,31.219360 
	C9.047143,30.982803 9.231080,30.985882 9.690289,30.972235 
	C9.965560,30.955507 10.072474,31.319630 10.098221,31.507622 
z"/>
<path fill="#0E0C0E" opacity="1.000000" stroke="none" 
	d="
M43.334557,27.953667 
	C42.327221,25.520878 41.668446,23.104029 41.198883,20.050920 
	C42.222912,19.239599 43.057739,19.064537 44.289211,18.917103 
	C45.482323,18.930775 46.278790,18.916815 47.075253,18.902857 
	C47.075253,18.902857 47.537056,18.949785 47.766685,18.983442 
	C47.637077,21.119066 47.277843,23.221031 46.960686,25.666178 
	C45.896217,26.662773 44.789669,27.316189 43.334557,27.953667 
z"/>
<path fill="#312921" opacity="1.000000" stroke="none" 
	d="
M49.146801,19.287338 
	C50.184212,19.182610 51.371033,19.362822 52.799709,19.817616 
	C51.304001,23.442339 50.457584,20.372885 49.146801,19.287338 
z"/>
<path fill="#779BB1" opacity="1.000000" stroke="none" 
	d="
M21.723372,19.966640 
	C21.579659,19.841249 21.433563,19.718700 21.317936,19.164843 
	C21.361591,18.481909 21.372395,18.233126 21.517971,17.810879 
	C21.652744,17.637419 21.655666,17.198101 21.655666,17.198101 
	C22.006359,17.257198 22.357054,17.316298 23.183094,17.288002 
	C23.658443,17.200607 23.983761,16.907585 24.319397,16.903780 
	C25.099302,16.852158 25.543575,16.804340 26.362532,16.855223 
	C27.482189,17.157833 28.227160,17.361746 28.947840,17.702295 
	C28.923548,17.838932 28.969275,18.112698 28.967838,18.405676 
	C28.957497,19.088652 28.948595,19.478649 28.971193,19.881847 
	C29.002695,19.895048 28.985542,19.961174 28.586418,19.974964 
	C27.662977,20.091488 27.138664,20.194223 26.614349,20.296959 
	C26.136196,20.192640 25.658041,20.088324 24.830025,19.968884 
	C24.480164,19.953762 24.468340,19.993069 24.017143,19.899250 
	C22.951756,19.859169 22.337563,19.912905 21.723372,19.966640 
z"/>
<path fill="#483A21" opacity="1.000000" stroke="none" 
	d="
M25.036955,10.432173 
	C25.247753,10.010199 25.431320,9.997288 25.890228,9.963915 
	C26.539423,9.940845 26.913277,9.938237 27.567327,9.940277 
	C28.033024,9.954134 28.218521,9.963343 28.696922,10.403121 
	C29.021591,12.563682 29.053358,14.293673 29.066347,16.019535 
	C29.047569,16.015404 29.020716,16.034071 28.686558,16.022064 
	C27.907087,15.998363 27.461777,15.986668 26.843645,15.734838 
	C26.118414,15.307462 25.566006,15.120219 25.013596,14.932977 
	C25.012306,13.569063 25.011017,12.205151 25.036955,10.432173 
z"/>
<path fill="#B57B72" opacity="1.000000" stroke="none" 
	d="
M17.758574,18.145411 
	C17.559841,18.089119 17.361107,18.032829 16.891706,17.828930 
	C16.621038,17.681320 16.565407,17.548811 16.351761,17.258802 
	C15.408470,16.357965 14.678824,15.747137 13.949178,15.136309 
	C14.994575,15.116565 16.039972,15.096821 17.477463,15.095337 
	C17.966549,15.501812 18.063541,15.890025 18.099331,16.890551 
	C17.944942,17.717045 17.851757,17.931229 17.758574,18.145411 
z"/>
<path fill="#161515" opacity="1.000000" stroke="none" 
	d="
M24.715248,14.983669 
	C25.566006,15.120219 26.118414,15.307462 26.642078,15.823277 
	C26.348503,16.295137 26.140007,16.496696 25.987846,16.756523 
	C25.543575,16.804340 25.099302,16.852158 24.206581,16.706043 
	C23.551346,16.277639 23.298031,16.116146 22.998182,16.027630 
	C23.471088,15.696541 23.943996,15.365452 24.715248,14.983669 
z"/>
<path fill="#432E1E" opacity="1.000000" stroke="none" 
	d="
M21.230497,17.143234 
	C21.655666,17.198101 21.652744,17.637419 21.272329,17.864674 
	C20.571905,18.201477 20.305151,18.387360 20.091650,18.649572 
	C20.091650,18.649572 19.644089,18.666357 19.391714,18.348011 
	C19.126696,17.679422 19.114054,17.329176 19.101410,16.978931 
	C19.669382,17.015409 20.237356,17.051889 21.230497,17.143234 
z"/>
<path fill="#6A4C43" opacity="1.000000" stroke="none" 
	d="
M18.905663,16.946684 
	C19.114054,17.329176 19.126696,17.679422 19.176044,18.287727 
	C18.871386,18.517588 18.530022,18.489389 17.973616,18.303299 
	C17.851757,17.931229 17.944942,17.717045 18.177639,17.180513 
	C18.317150,16.858164 18.709913,16.914436 18.905663,16.946684 
z"/>
<path fill="#1D2635" opacity="1.000000" stroke="none" 
	d="
M23.032808,16.329811 
	C23.298031,16.116146 23.551346,16.277639 23.870945,16.709850 
	C23.983761,16.907585 23.658443,17.200607 23.442814,17.209782 
	C23.173933,17.023302 23.120684,16.827646 23.032808,16.329811 
z"/>
<path fill="#515865" opacity="1.000000" stroke="none" 
	d="
M13.738091,15.090247 
	C14.678824,15.747137 15.408470,16.357965 16.133926,17.241787 
	C15.822041,17.548162 15.626229,17.713125 15.542302,18.009672 
	C15.288448,18.013794 15.034594,18.017918 14.400131,18.022121 
	C13.801318,17.729149 13.583114,17.436094 13.142075,16.979183 
	C12.946160,16.429298 12.973081,16.043272 13.048359,15.370515 
	C13.096717,15.083783 13.527005,15.044186 13.738091,15.090247 
z"/>
<path fill="#66615A" opacity="1.000000" stroke="none" 
	d="
M14.896780,45.544815 
	C15.068991,45.218853 15.241201,44.892895 15.833900,44.385445 
	C16.892986,44.198380 17.531584,44.192806 18.538483,44.149414 
	C19.398014,44.045727 19.889246,43.979858 20.654984,43.893787 
	C21.289557,43.945251 21.649620,44.016914 22.017908,44.388771 
	C22.066526,44.885052 22.106918,45.081142 22.238689,45.426613 
	C22.330070,45.575993 22.467745,45.898029 22.274540,45.918243 
	C22.081337,45.938454 21.703318,46.028160 21.703318,46.028160 
	C21.468969,45.972317 21.234621,45.916477 20.244194,45.948322 
	C19.230652,46.100540 18.973183,46.165073 18.377197,46.234734 
	C17.372135,46.248554 16.705589,46.257252 15.709835,46.154793 
	C15.219345,45.877361 15.058063,45.711086 14.896780,45.544815 
z"/>
<path fill="#FAFBF9" opacity="1.000000" stroke="none" 
	d="
M16.039042,46.265945 
	C16.705589,46.257252 17.372135,46.248554 18.351110,46.591248 
	C18.748081,47.651783 18.832623,48.360931 18.917166,49.070080 
	C18.178339,49.372959 17.439512,49.675838 16.399395,49.919102 
	C16.097298,49.130764 16.096493,48.402046 16.077576,47.140755 
	C16.059465,46.608181 16.039042,46.265945 16.039042,46.265945 
z"/>
<path fill="#7F6A4C" opacity="1.000000" stroke="none" 
	d="
M21.554626,46.396355 
	C21.703318,46.028160 22.081337,45.938454 22.492477,46.184364 
	C22.939617,47.611843 22.975616,48.793419 23.011614,49.974991 
	C22.803236,50.259613 22.594860,50.544239 22.170071,50.986507 
	C21.771086,49.684280 21.588511,48.224415 21.554626,46.396355 
z"/>
<path fill="#8F908F" opacity="1.000000" stroke="none" 
	d="
M19.194714,48.854851 
	C18.832623,48.360931 18.748081,47.651783 18.689625,46.586121 
	C18.973183,46.165073 19.230652,46.100540 19.890223,46.021042 
	C20.018970,46.883923 19.745615,47.761772 19.194714,48.854851 
z"/>
<path fill="#897C5E" opacity="1.000000" stroke="none" 
	d="
M22.097441,53.290771 
	C22.401861,53.164146 22.622520,53.318943 22.880983,53.739773 
	C22.813877,53.986206 22.651150,54.049057 22.251921,53.999508 
	C22.015419,53.887108 22.071501,53.489742 22.097441,53.290771 
z"/>
<path fill="#2D201E" opacity="1.000000" stroke="none" 
	d="
M47.059471,18.587370 
	C46.278790,18.916815 45.482323,18.930775 44.320145,18.605194 
	C43.979393,17.846811 44.004356,17.427967 44.029320,17.009121 
	C44.782188,17.005573 45.535061,17.002028 46.665585,17.002319 
	C47.043392,17.428068 47.043545,17.849976 47.059471,18.587370 
z"/>
<path fill="#667470" opacity="1.000000" stroke="none" 
	d="
M13.099888,32.932434 
	C13.380504,32.770309 13.693051,32.884399 13.849879,32.940010 
	C14.582672,34.423756 15.158637,35.851891 15.396725,37.628220 
	C13.989534,37.988403 12.920221,38.000385 11.542202,38.017639 
	C10.821833,38.018223 10.410170,38.013538 9.998507,38.008858 
	C9.998507,38.008858 9.987530,37.987503 9.973154,37.983280 
	C10.609663,36.883331 11.260548,35.787605 11.943869,34.375080 
	C12.257294,33.737038 12.538283,33.415798 13.099888,32.932434 
z"/>
<path fill="#55462E" opacity="1.000000" stroke="none" 
	d="
M44.041351,16.721020 
	C44.004356,17.427967 43.979393,17.846811 43.923496,18.577566 
	C43.057739,19.064537 42.222912,19.239599 41.187176,19.665134 
	C39.574783,20.273785 38.163307,20.631962 36.360058,20.642010 
	C35.994556,19.591372 36.020828,18.888863 36.292088,17.970966 
	C36.361450,16.821644 36.185825,15.887714 35.900570,14.731316 
	C35.582439,14.242697 35.324844,14.038464 35.012726,13.518514 
	C35.003162,12.133826 34.999020,11.126774 34.994881,10.119720 
	C35.389229,10.051066 35.783573,9.982412 36.477825,9.892057 
	C37.013271,9.879885 37.248814,9.889412 37.837921,9.895609 
	C38.191486,9.892279 38.632137,9.889357 38.836906,9.807928 
	C39.211212,9.759349 39.380749,9.792197 39.768330,9.685049 
	C41.113800,9.643201 42.241230,9.741350 43.676262,9.919462 
	C44.296535,11.406945 44.609200,12.814467 44.900612,14.607735 
	C44.604034,15.473292 44.328709,15.953104 44.041351,16.721020 
z"/>
<path fill="#4D3F27" opacity="1.000000" stroke="none" 
	d="
M34.805988,10.012451 
	C34.999020,11.126774 35.003162,12.133826 34.671848,13.558437 
	C33.238174,14.653863 32.139950,15.331730 30.714722,16.010292 
	C29.953518,16.015213 29.519320,16.019440 29.085125,16.023666 
	C29.053358,14.293673 29.021591,12.563682 28.975485,10.399168 
	C28.931257,9.604115 28.901367,9.243585 28.880419,8.612017 
	C29.692995,8.880952 30.496630,9.420924 31.911371,9.999910 
	C32.729694,10.023288 32.936909,10.007649 33.144127,9.992012 
	C33.316391,9.963768 33.488655,9.935523 33.922272,9.920751 
	C34.183620,9.934224 34.617096,9.905182 34.805988,10.012451 
z"/>
<path fill="#818181" opacity="1.000000" stroke="none" 
	d="
M33.128372,9.715590 
	C32.936909,10.007649 32.729694,10.023288 32.216320,9.980001 
	C32.049976,9.628437 32.246075,9.380280 32.701569,9.051278 
	C32.973991,9.097024 33.043304,9.268096 33.128372,9.715590 
z"/>
<path fill="#848C80" opacity="1.000000" stroke="none" 
	d="
M10.001646,38.421883 
	C10.410170,38.013538 10.821833,38.018223 11.657333,38.371937 
	C13.682836,39.188049 15.284500,39.655128 16.886166,40.122211 
	C17.272667,40.839935 17.659168,41.557663 17.620836,42.635162 
	C15.122711,42.999268 13.049419,43.003597 10.976128,43.007923 
	C10.976128,43.007923 10.485740,43.069832 10.244359,43.016739 
	C10.003581,41.587402 10.004183,40.211159 10.001646,38.421883 
z"/>
<path fill="#949E97" opacity="1.000000" stroke="none" 
	d="
M11.043703,43.156261 
	C13.049419,43.003597 15.122711,42.999268 17.639862,42.943100 
	C18.083719,42.891262 18.054749,42.907276 18.052225,43.230064 
	C18.089863,43.764313 18.130024,43.975773 18.170183,44.187233 
	C17.531584,44.192806 16.892986,44.198380 16.004887,44.282623 
	C14.484003,44.171623 13.212622,43.981949 11.564034,43.707008 
	C11.186827,43.621738 11.111278,43.304600 11.043703,43.156261 
z"/>
<path fill="#E6E7E4" opacity="1.000000" stroke="none" 
	d="
M15.709835,46.154793 
	C16.039042,46.265945 16.059465,46.608181 16.039383,46.778393 
	C15.565740,47.845272 15.112178,48.741936 14.356653,49.780952 
	C13.887334,49.025894 13.719976,48.128487 13.224195,47.111115 
	C12.841786,46.805813 12.787800,46.620468 13.150901,46.103546 
	C13.749712,45.654610 13.931435,45.537247 14.113158,45.419888 
	C14.113158,45.419888 14.500504,45.511223 14.698643,45.528019 
	C15.058063,45.711086 15.219345,45.877361 15.709835,46.154793 
z"/>
<path fill="#66615A" opacity="1.000000" stroke="none" 
	d="
M13.952902,45.249226 
	C13.931435,45.537247 13.749712,45.654610 13.248898,45.831059 
	C13.217420,45.619621 13.505033,45.349094 13.952902,45.249226 
z"/>
<path fill="#00D52B" opacity="1.000000" stroke="none" 
	d="
M52.022205,44.919556 
	C56.126137,48.037258 57.215778,52.073895 54.679550,54.763885 
	C51.995209,57.610977 45.304867,57.857647 42.867329,55.199390 
	C40.495331,52.612625 41.514870,48.282257 45.623352,45.030724 
	C45.993896,44.994110 46.035618,45.035572 46.029652,45.376518 
	C46.386524,46.492855 46.749363,47.268253 46.964249,48.362148 
	C46.674168,49.781849 46.532036,50.883045 46.464752,52.355709 
	C48.270061,52.006435 52.283401,55.638359 51.672947,49.812180 
	C51.887154,49.026058 51.928825,48.553085 51.978851,47.685677 
	C51.998867,46.500675 52.010536,45.710114 52.022205,44.919556 
z"/>
<path fill="#00D52B" opacity="1.000000" stroke="none" 
	d="
M45.972961,44.973457 
	C45.964729,44.232712 45.977428,43.512627 45.986122,42.146065 
	C45.979069,41.309345 45.976017,41.119099 45.972969,40.928848 
	C47.128887,40.564960 48.284809,40.201069 49.758377,40.289764 
	C50.397594,41.518059 50.719162,42.293766 51.040733,43.069469 
	C51.040733,43.069469 51.032730,43.502178 50.778595,43.991035 
	C49.028179,44.665115 47.531898,44.850346 46.035618,45.035572 
	C46.035618,45.035572 45.993896,44.994110 45.972961,44.973457 
z"/>
<path fill="#01D42B" opacity="1.000000" stroke="none" 
	d="
M46.029652,45.376518 
	C47.531898,44.850346 49.028179,44.665115 50.786430,44.207287 
	C51.353428,44.051144 51.605278,44.238918 51.913078,44.708782 
	C52.010536,45.710114 51.998867,46.500675 51.721710,47.663422 
	C51.287418,48.069099 51.118626,48.102592 50.568966,48.081757 
	C49.162800,48.032829 48.137501,48.038239 47.112198,48.043648 
	C46.749363,47.268253 46.386524,46.492855 46.029652,45.376518 
z"/>
<path fill="#01D42B" opacity="1.000000" stroke="none" 
	d="
M51.300560,42.927643 
	C50.719162,42.293766 50.397594,41.518059 50.039722,40.432152 
	C51.839558,40.240063 53.522396,40.447765 51.300560,42.927643 
z"/>
<path fill="#01D42B" opacity="1.000000" stroke="none" 
	d="
M45.800579,41.038620 
	C45.976017,41.119099 45.979069,41.309345 45.977531,41.785439 
	C45.858028,41.763653 45.743111,41.456017 45.800579,41.038620 
z"/>
<path fill="#5F7A7B" opacity="1.000000" stroke="none" 
	d="
M27.594751,27.268042 
	C27.552065,27.050026 27.509377,26.832008 27.739422,26.236580 
	C28.661327,25.257559 29.310495,24.655949 30.305374,24.114307 
	C32.378700,24.788414 34.106319,25.402548 35.833931,26.016682 
	C35.182678,27.349312 34.531425,28.681940 33.643902,30.502884 
	C33.248817,31.302839 33.090008,31.614475 32.931194,31.926113 
	C32.931194,31.926113 32.979126,31.882919 32.780987,31.657745 
	C32.376438,31.136967 32.170033,30.841360 31.977833,30.222113 
	C30.996441,29.266314 30.000839,28.634157 28.751963,27.999245 
	C28.331099,27.975822 28.163509,27.955154 27.940403,27.813984 
	C27.804270,27.540686 27.707558,27.398872 27.594751,27.268042 
z"/>
<path fill="#120F11" opacity="1.000000" stroke="none" 
	d="
M31.041729,16.009598 
	C32.139950,15.331730 33.238174,14.653863 34.677277,13.936071 
	C35.324844,14.038464 35.582439,14.242697 35.897408,15.134804 
	C36.018288,16.569294 36.032696,17.377825 36.047100,18.186356 
	C36.020828,18.888863 35.994556,19.591372 35.986305,20.644873 
	C35.726097,21.097681 35.488956,21.259647 34.943382,21.567083 
	C34.593857,21.652399 34.105858,21.572454 34.081017,21.261518 
	C33.051361,19.303587 32.046543,17.656591 31.041729,16.009598 
z"/>
<path fill="#87A2AD" opacity="1.000000" stroke="none" 
	d="
M36.418423,34.318089 
	C36.877167,34.767185 36.961613,35.148872 37.182701,35.795181 
	C36.970783,36.520550 36.622219,36.981297 36.136391,37.694557 
	C35.558907,37.947861 35.118679,37.948654 34.167786,37.736885 
	C33.110294,37.389133 32.563469,37.253948 31.776001,37.084110 
	C31.535357,37.049461 31.050285,37.083279 30.974716,37.050041 
	C30.899147,37.016804 30.734371,37.006256 30.920795,36.753632 
	C31.741514,35.730331 32.375805,34.959656 33.010098,34.188980 
	C34.021439,34.209545 35.032784,34.230114 36.418423,34.318089 
z"/>
<path fill="#435155" opacity="1.000000" stroke="none" 
	d="
M32.971764,33.920559 
	C32.375805,34.959656 31.741514,35.730331 30.651388,36.818039 
	C30.013515,37.175087 29.831478,37.215107 29.520920,37.257595 
	C29.392403,37.260059 29.174210,37.126999 29.179386,36.884495 
	C29.184565,36.641991 29.237968,36.159824 29.425056,35.958992 
	C29.421980,35.145164 29.231815,34.532177 29.033188,33.659988 
	C29.014282,33.228218 29.003839,33.055641 29.138218,32.642738 
	C29.564680,31.919582 29.846319,31.436756 30.299334,30.957348 
	C30.470707,30.960766 30.814669,30.966927 30.879002,31.283283 
	C31.560720,32.108990 32.178108,32.618336 32.795498,33.127682 
	C32.841473,33.302498 32.887451,33.477318 32.971764,33.920559 
z"/>
<path fill="#517078" opacity="1.000000" stroke="none" 
	d="
M34.105858,21.572454 
	C34.105858,21.572454 34.593857,21.652399 34.822121,21.747198 
	C35.344822,22.993414 35.639263,24.144833 35.883820,25.656467 
	C34.106319,25.402548 32.378700,24.788414 30.302326,23.871120 
	C29.953568,23.567961 29.961641,23.082785 30.326321,23.089333 
	C31.559980,22.734552 32.428959,22.373220 33.519196,21.937469 
	C33.740448,21.863052 34.105858,21.572454 34.105858,21.572454 
z"/>
<path fill="#4C3128" opacity="1.000000" stroke="none" 
	d="
M32.850021,32.811287 
	C32.178108,32.618336 31.560720,32.108990 31.179729,31.211910 
	C31.598625,30.731373 31.781124,30.638565 31.963625,30.545755 
	C32.170033,30.841360 32.376438,31.136967 32.752399,31.642796 
	C32.916145,32.066978 32.910343,32.280937 32.850021,32.811287 
z"/>
<path fill="#4C3128" opacity="1.000000" stroke="none" 
	d="
M33.201714,31.824028 
	C33.090008,31.614475 33.248817,31.302839 33.625320,30.828491 
	C33.719421,31.017836 33.595825,31.369888 33.201714,31.824028 
z"/>
<path fill="#F5F6F6" opacity="1.000000" stroke="none" 
	d="
M27.924814,50.945705 
	C27.633034,50.809650 27.326183,50.743729 26.548813,50.449959 
	C25.394545,50.126854 24.695723,50.101742 23.996902,50.076630 
	C24.117893,49.862785 24.238884,49.648941 24.348804,49.028168 
	C24.337732,48.621239 24.355923,48.539547 24.587830,48.865990 
	C25.228956,48.399033 25.638178,47.605637 26.139652,46.635704 
	C26.489725,46.155880 26.747543,45.852592 27.286991,45.440872 
	C27.712568,45.191879 27.856518,45.051315 28.093227,45.154907 
	C28.454865,45.610821 28.723743,45.822582 28.994766,46.227295 
	C28.996910,46.420246 28.953934,46.803783 28.846581,47.139595 
	C28.703720,47.944122 28.668213,48.412834 28.397377,48.988579 
	C28.127983,49.418346 28.093914,49.741074 28.018404,50.283104 
	C27.976963,50.502399 27.924814,50.945705 27.924814,50.945705 
z"/>
<path fill="#F2F2EE" opacity="1.000000" stroke="none" 
	d="
M27.005362,45.549301 
	C26.747543,45.852592 26.489725,46.155880 25.842773,46.584194 
	C25.087734,47.319328 24.721827,47.929436 24.355923,48.539547 
	C24.355923,48.539547 24.337732,48.621239 24.331314,48.660034 
	C24.167681,48.974983 24.010466,49.251137 23.432434,49.751141 
	C22.975616,48.793419 22.939617,47.611843 22.685682,46.164150 
	C22.467745,45.898029 22.330070,45.575993 22.605234,45.493729 
	C23.302671,45.191696 23.724945,44.971920 24.497101,44.882103 
	C25.566442,45.191139 26.285902,45.370220 27.005362,45.549301 
z"/>
<path fill="#303139" opacity="1.000000" stroke="none" 
	d="
M28.167101,50.938301 
	C27.924814,50.945705 27.976963,50.502399 28.287663,50.202267 
	C28.609810,49.561939 28.621258,49.221741 28.632706,48.881546 
	C28.668213,48.412834 28.703720,47.944122 29.174620,47.302052 
	C29.760578,48.079788 29.911144,49.030884 30.061710,49.981979 
	C29.510935,50.298283 28.960161,50.614586 28.167101,50.938301 
z"/>
<path fill="#FBFBFA" opacity="1.000000" stroke="none" 
	d="
M30.275280,50.059490 
	C29.911144,49.030884 29.760578,48.079788 29.281973,46.966240 
	C28.953934,46.803783 28.996910,46.420246 29.280064,46.024223 
	C30.028341,45.597580 30.493469,45.566956 31.000809,45.924141 
	C31.093060,46.567162 31.143095,46.822372 31.106842,47.437874 
	C30.990055,48.540211 30.959553,49.282249 30.929052,50.024292 
	C30.929052,50.024292 30.488850,50.137001 30.275280,50.059490 
z"/>
<path fill="#FCFDFC" opacity="1.000000" stroke="none" 
	d="
M32.910538,45.547489 
	C32.942581,46.745895 32.974628,47.944305 33.024277,49.591740 
	C33.041882,50.040768 32.603882,49.960686 32.308289,49.593147 
	C31.944244,48.509026 31.875788,47.792435 31.895424,46.688786 
	C32.021889,46.039845 32.060265,45.777966 32.301769,45.520035 
	C32.504894,45.523991 32.910538,45.547489 32.910538,45.547489 
z"/>
<path fill="#252A39" opacity="1.000000" stroke="none" 
	d="
M31.807333,47.075848 
	C31.875788,47.792435 31.944244,48.509026 32.085953,49.581757 
	C31.844254,50.092159 31.529303,50.246418 31.071701,50.212482 
	C30.959553,49.282249 30.990055,48.540211 31.260414,47.448025 
	C31.500271,47.097881 31.807333,47.075848 31.807333,47.075848 
z"/>
<path fill="#7C715E" opacity="1.000000" stroke="none" 
	d="
M24.252014,50.317162 
	C24.695723,50.101742 25.394545,50.126854 26.328251,50.536758 
	C25.877802,50.800270 25.192463,50.678982 24.252014,50.317162 
z"/>
<path fill="#0E0A0C" opacity="1.000000" stroke="none" 
	d="
M33.026031,42.587982 
	C32.921925,43.065582 32.841000,43.232574 32.376377,43.665382 
	C31.631783,43.953220 31.270884,43.975243 30.724163,43.997871 
	C30.538343,43.998482 30.167150,44.043957 29.821566,43.997108 
	C29.014071,43.900139 28.552158,43.850018 28.112873,43.504013 
	C29.251606,42.210842 30.367712,41.213558 31.861561,39.987267 
	C32.805393,39.605686 33.371487,39.453117 33.937576,39.300552 
	C33.641457,40.292828 33.345337,41.285103 33.026031,42.587982 
z"/>
<path fill="#A97767" opacity="1.000000" stroke="none" 
	d="
M33.956451,38.967739 
	C33.371487,39.453117 32.805393,39.605686 31.645876,39.688995 
	C30.584778,38.831535 30.117109,38.043331 29.649439,37.255131 
	C29.831478,37.215107 30.013515,37.175087 30.464962,37.070663 
	C30.734371,37.006256 30.899147,37.016804 31.056625,37.193253 
	C31.214106,37.369701 31.662428,37.447651 31.662428,37.447651 
	C31.662428,37.447651 32.016644,37.118759 32.016644,37.118759 
	C32.563469,37.253948 33.110294,37.389133 33.837807,37.746979 
	C34.004105,38.191402 33.989716,38.413166 33.956451,38.967739 
z"/>
<path fill="#1F1D1D" opacity="1.000000" stroke="none" 
	d="
M30.909985,43.997265 
	C31.270884,43.975243 31.631783,43.953220 32.263218,43.919693 
	C32.542229,44.108337 32.550701,44.308487 32.544930,44.784889 
	C32.530693,45.061150 32.541821,45.014370 32.154087,44.980675 
	C31.507078,44.956429 31.247805,44.965874 30.926672,44.879688 
	C30.864815,44.784058 30.741890,44.592285 30.809467,44.450752 
	C30.877045,44.309216 30.909985,43.997265 30.909985,43.997265 
z"/>
<path fill="#0E0A0C" opacity="1.000000" stroke="none" 
	d="
M32.541821,45.014370 
	C32.541821,45.014370 32.530693,45.061150 32.524502,45.084686 
	C32.518311,45.108219 32.546757,45.477802 32.728645,45.512646 
	C32.910538,45.547489 32.504894,45.523991 32.510101,45.481121 
	C32.515308,45.438251 32.541821,45.014370 32.541821,45.014370 
z"/>
<path fill="#343234" opacity="1.000000" stroke="none" 
	d="
M21.019291,31.342398 
	C22.689632,31.000574 24.360111,30.991550 26.457355,31.255663 
	C26.898014,31.715607 26.911911,31.902416 26.886410,32.301834 
	C26.847013,32.514439 26.815622,32.946625 26.561260,33.078194 
	C25.531189,33.779270 24.755482,34.348785 23.798750,34.695961 
	C23.076143,34.315620 22.534559,34.157619 21.992977,33.999619 
	C21.668461,33.224812 21.343945,32.450005 21.019291,31.342398 
z"/>
<path fill="#4A5F63" opacity="1.000000" stroke="none" 
	d="
M16.819885,39.824577 
	C15.284500,39.655128 13.682836,39.188049 11.966040,38.366669 
	C12.920221,38.000385 13.989534,37.988403 15.454111,37.955551 
	C16.150784,38.465439 16.452194,38.996189 16.819885,39.824577 
z"/>
<path fill="#647B7C" opacity="1.000000" stroke="none" 
	d="
M20.193634,41.587200 
	C20.193634,41.587200 20.118898,41.503258 20.332390,41.594948 
	C20.695791,41.602829 20.845697,41.519020 21.092197,41.567928 
	C20.776567,42.138729 20.364347,42.576813 19.976679,43.005753 
	C20.001230,42.996613 19.992403,43.048264 20.157928,42.698868 
	C20.280180,42.095379 20.236906,41.841290 20.193634,41.587200 
z"/>
<path fill="#3B3F44" opacity="1.000000" stroke="none" 
	d="
M22.020121,34.300575 
	C22.534559,34.157619 23.076143,34.315620 23.864182,35.001762 
	C24.194111,35.720615 24.277584,35.911335 24.234026,36.114769 
	C24.106993,36.127480 23.898922,35.979485 23.680206,35.989368 
	C23.461489,35.999252 23.024548,36.027927 23.024548,36.027927 
	C22.698786,35.552460 22.373026,35.076992 22.020121,34.300575 
z"/>
<path fill="#121620" opacity="1.000000" stroke="none" 
	d="
M19.998924,27.375830 
	C19.998718,27.001106 20.498646,27.000015 20.747902,26.999386 
	C20.998167,27.749098 20.999176,28.499441 20.999756,29.624454 
	C20.999329,29.999128 20.499882,30.000069 20.250378,29.999865 
	C20.000294,29.249958 19.999712,28.500256 19.998924,27.375830 
z"/>
<path fill="#848C80" opacity="1.000000" stroke="none" 
	d="
M18.538483,44.149414 
	C18.130024,43.975773 18.089863,43.764313 18.066166,43.229836 
	C18.248720,42.871380 18.414808,42.835930 19.040503,42.936646 
	C19.500107,43.072815 19.992403,43.048264 19.992403,43.048264 
	C19.992403,43.048264 20.001230,42.996613 20.029903,43.255886 
	C20.165874,43.648102 20.273174,43.781044 20.380476,43.913986 
	C19.889246,43.979858 19.398014,44.045727 18.538483,44.149414 
z"/>
<path fill="#0B0A10" opacity="1.000000" stroke="none" 
	d="
M21.994400,38.995670 
	C22.171623,38.447178 22.348845,37.898685 22.776035,37.188465 
	C23.026001,37.026737 23.047026,37.048340 23.002243,37.334976 
	C22.641577,38.084080 22.325693,38.546551 22.006004,39.005516 
	C22.002195,39.002007 21.994400,38.995670 21.994400,38.995670 
z"/>
<path fill="#0B0A10" opacity="1.000000" stroke="none" 
	d="
M20.959648,39.972553 
	C21.062164,39.644325 21.255661,39.383640 21.767269,39.093086 
	C21.994400,38.995670 22.002195,39.002007 21.884747,39.214348 
	C21.564413,39.687519 21.309557,39.879295 20.992977,39.994938 
	C20.983227,39.987862 20.959648,39.972553 20.959648,39.972553 
z"/>
<path fill="#111118" opacity="1.000000" stroke="none" 
	d="
M20.157928,42.698868 
	C19.992403,43.048264 19.500107,43.072815 19.295248,42.935940 
	C19.325617,42.522655 19.560844,42.246246 19.994854,41.778519 
	C20.236906,41.841290 20.280180,42.095379 20.157928,42.698868 
z"/>
<path fill="#0B0A10" opacity="1.000000" stroke="none" 
	d="
M20.995605,41.435215 
	C20.845697,41.519020 20.695791,41.602829 20.293198,41.635216 
	C20.183619,41.184643 20.326727,40.785484 20.714741,40.179440 
	C20.959648,39.972553 20.983227,39.987862 20.991642,40.353233 
	C20.998573,40.957474 20.997089,41.196342 20.995605,41.435215 
z"/>
<path fill="#0B0A10" opacity="1.000000" stroke="none" 
	d="
M23.014469,36.272926 
	C23.024548,36.027927 23.461489,35.999252 23.750525,36.239021 
	C24.029112,36.651386 24.018663,36.823986 23.767668,37.004921 
	C23.527122,37.013252 23.047026,37.048340 23.047026,37.048340 
	C23.047026,37.048340 23.026001,37.026737 23.017097,37.017525 
	C23.008192,37.008312 23.004391,36.517921 23.014469,36.272926 
z"/>
<path fill="#5C7D8D" opacity="1.000000" stroke="none" 
	d="
M29.961641,23.082785 
	C29.961641,23.082785 29.953568,23.567961 29.956615,23.811150 
	C29.310495,24.655949 28.661327,25.257559 27.750183,25.903521 
	C27.238880,24.328939 26.989553,22.710009 26.677288,20.694017 
	C27.138664,20.194223 27.662977,20.091488 28.632607,20.265890 
	C29.368467,21.032206 29.659014,21.521385 29.946934,22.278683 
	C29.950085,22.725462 29.955864,22.904123 29.961641,23.082785 
z"/>
<path fill="#B07C74" opacity="1.000000" stroke="none" 
	d="
M26.925806,32.089226 
	C26.911911,31.902416 26.898014,31.715607 26.875011,31.247917 
	C27.133831,30.770079 27.401762,30.573122 28.084198,30.188122 
	C28.498703,30.000078 28.996584,29.964739 29.156055,30.161394 
	C29.586340,30.556677 29.857149,30.755302 30.127960,30.953930 
	C29.846319,31.436756 29.564680,31.919582 28.874035,32.559795 
	C27.951958,32.507866 27.438881,32.298546 26.925806,32.089226 
z"/>
<path fill="#7684A1" opacity="1.000000" stroke="none" 
	d="
M24.468340,19.993069 
	C24.468340,19.993069 24.480164,19.953762 24.464380,19.936974 
	C24.120613,20.554344 23.792629,21.188503 23.561522,21.230461 
	C23.928377,20.423197 24.198359,20.208132 24.468340,19.993069 
z"/>
<path fill="#895C4F" opacity="1.000000" stroke="none" 
	d="
M24.017143,19.899250 
	C24.198359,20.208132 23.928377,20.423197 23.280849,20.993786 
	C22.903305,21.349308 22.831360,21.297764 22.813931,21.310326 
	C22.630898,21.087255 22.465294,20.851622 22.011530,20.291315 
	C22.337563,19.912905 22.951756,19.859169 24.017143,19.899250 
z"/>
<path fill="#557279" opacity="1.000000" stroke="none" 
	d="
M28.996584,29.964739 
	C28.996584,29.964739 28.498703,30.000078 28.248943,29.999102 
	C27.999615,29.796289 28.000046,29.594452 27.990557,28.878490 
	C27.980637,28.364370 27.995922,27.934486 27.995922,27.934486 
	C28.163509,27.955154 28.331099,27.975822 28.750858,28.326466 
	C29.000879,29.092541 28.998732,29.528639 28.996584,29.964739 
z"/>
<path fill="#5C7D8D" opacity="1.000000" stroke="none" 
	d="
M27.940403,27.813984 
	C27.995922,27.934486 27.980637,28.364370 28.004509,28.576054 
	C27.823893,28.415888 27.619404,28.044035 27.504833,27.470112 
	C27.707558,27.398872 27.804270,27.540686 27.940403,27.813984 
z"/>
<path fill="#7F8AA5" opacity="1.000000" stroke="none" 
	d="
M15.716059,17.982700 
	C15.626229,17.713125 15.822041,17.548162 16.347570,17.531796 
	C16.565407,17.548811 16.621038,17.681320 16.599743,17.725246 
	C16.362537,17.881960 16.132992,17.944145 15.716059,17.982700 
z"/>
<path fill="#41331F" opacity="1.000000" stroke="none" 
	d="
M20.335438,18.840664 
	C20.305151,18.387360 20.571905,18.201477 21.137556,18.038136 
	C21.372395,18.233126 21.361591,18.481909 21.205935,19.075905 
	C20.900461,19.291328 20.739843,19.161541 20.335438,18.840664 
z"/>
<path fill="#613D36" opacity="1.000000" stroke="none" 
	d="
M29.949560,22.010563 
	C29.659014,21.521385 29.368467,21.032206 29.031731,20.252102 
	C28.985542,19.961174 29.002695,19.895048 29.206394,19.770676 
	C29.263155,19.135101 29.116215,18.623899 28.969273,18.112698 
	C28.969275,18.112698 28.923548,17.838932 28.964699,17.319351 
	C29.010805,16.544537 29.015760,16.289303 29.020716,16.034071 
	C29.020716,16.034071 29.047569,16.015404 29.066345,16.019535 
	C29.519320,16.019440 29.953518,16.015213 30.714722,16.010292 
	C32.046543,17.656591 33.051361,19.303587 34.081017,21.261518 
	C34.105858,21.572454 33.740448,21.863052 33.095688,21.926451 
	C31.617142,21.996754 30.783350,22.003658 29.949560,22.010563 
z"/>
<path fill="#1D2635" opacity="1.000000" stroke="none" 
	d="
M28.686558,16.022064 
	C29.015760,16.289303 29.010805,16.544537 28.988991,17.182714 
	C28.227160,17.361746 27.482189,17.157833 26.362532,16.855223 
	C26.140007,16.496696 26.348503,16.295137 26.814899,16.063412 
	C27.461777,15.986668 27.907087,15.998363 28.686558,16.022064 
z"/>
<path fill="#6A8FA5" opacity="1.000000" stroke="none" 
	d="
M28.967836,18.405676 
	C29.116215,18.623899 29.263155,19.135101 29.174892,19.757475 
	C28.948595,19.478649 28.957497,19.088652 28.967836,18.405676 
z"/>
<path fill="#0A0C0F" opacity="1.000000" stroke="none" 
	d="
M23.002243,37.334976 
	C23.047026,37.048340 23.527122,37.013252 24.102777,37.045769 
	C25.114336,37.183769 25.550240,37.289249 25.975887,37.726231 
	C24.984701,39.975349 24.003773,41.892975 22.771341,43.886604 
	C22.349787,44.004597 22.179735,44.046585 22.009684,44.088577 
	C21.649620,44.016914 21.289557,43.945251 20.654984,43.893787 
	C20.273174,43.781044 20.165874,43.648102 20.005352,43.265030 
	C20.364347,42.576813 20.776567,42.138729 21.092197,41.567928 
	C20.997089,41.196342 20.998573,40.957474 21.001392,40.360306 
	C21.309557,39.879295 21.564413,39.687519 21.888556,39.217854 
	C22.325693,38.546551 22.641577,38.084080 23.002243,37.334976 
z"/>
<path fill="#717A80" opacity="1.000000" stroke="none" 
	d="
M22.017908,44.388771 
	C22.179735,44.046585 22.349787,44.004597 23.016060,43.986393 
	C23.723928,44.257500 23.935574,44.504822 24.147219,44.752148 
	C23.724945,44.971920 23.302671,45.191696 22.513853,45.344349 
	C22.106918,45.081142 22.066526,44.885052 22.017908,44.388771 
z"/>
<path fill="#060605" opacity="1.000000" stroke="none" 
	d="
M36.292088,17.970966 
	C36.032696,17.377825 36.018288,16.569294 36.007042,15.357273 
	C36.185825,15.887714 36.361450,16.821644 36.292088,17.970966 
z"/>
<path fill="#000000" opacity="1.000000" stroke="none" 
	d="
M46.964249,48.362148 
	C48.137501,48.038239 49.162800,48.032829 50.556156,48.397976 
	C50.821259,49.178131 50.718304,49.587730 50.381310,50.192448 
	C48.894810,50.919792 47.642361,51.452019 46.389908,51.984245 
	C46.532036,50.883045 46.674168,49.781849 46.964249,48.362148 
z"/>
<path fill="#000301" opacity="1.000000" stroke="none" 
	d="
M46.464752,52.355709 
	C47.642361,51.452019 48.894810,50.919792 50.602242,50.239624 
	C51.057224,50.091682 51.500408,50.125336 51.500408,50.125336 
	C52.283401,55.638359 48.270061,52.006435 46.464752,52.355709 
z"/>
<path fill="#00390C" opacity="1.000000" stroke="none" 
	d="
M51.672947,49.812180 
	C51.500408,50.125336 51.057224,50.091682 50.836288,50.044510 
	C50.718304,49.587730 50.821259,49.178131 50.937019,48.452309 
	C51.118626,48.102592 51.287418,48.069099 51.713356,48.057861 
	C51.928825,48.553085 51.887154,49.026058 51.672947,49.812180 
z"/>
<path fill="#425E64" opacity="1.000000" stroke="none" 
	d="
M29.156055,30.161394 
	C28.998732,29.528639 29.000879,29.092541 29.004131,28.329220 
	C30.000839,28.634157 30.996441,29.266314 31.977833,30.222113 
	C31.781124,30.638565 31.598625,30.731373 31.115398,30.895554 
	C30.814669,30.966927 30.470707,30.960766 30.299334,30.957348 
	C29.857149,30.755302 29.586340,30.556677 29.156055,30.161394 
z"/>
<path fill="#A3877D" opacity="1.000000" stroke="none" 
	d="
M31.776001,37.084110 
	C32.016644,37.118759 31.662428,37.447651 31.662428,37.447651 
	C31.662428,37.447651 31.214106,37.369701 31.132195,37.226490 
	C31.050285,37.083279 31.535357,37.049461 31.776001,37.084110 
z"/>
<path fill="#111217" opacity="1.000000" stroke="none" 
	d="
M24.497101,44.882103 
	C23.935574,44.504822 23.723928,44.257500 23.267563,43.910385 
	C24.003773,41.892975 24.984701,39.975349 26.368248,37.648834 
	C27.571980,37.202293 28.373095,37.164646 29.174210,37.126999 
	C29.174210,37.126999 29.392403,37.260059 29.520920,37.257595 
	C30.117109,38.043331 30.584778,38.831535 31.268133,39.918007 
	C30.367712,41.213558 29.251606,42.210842 28.067448,43.780819 
	C27.999758,44.539261 28.000114,44.725006 28.000469,44.910751 
	C27.856518,45.051315 27.712568,45.191879 27.286991,45.440872 
	C26.285902,45.370220 25.566442,45.191139 24.497101,44.882103 
z"/>
<path fill="#6A93AA" opacity="1.000000" stroke="none" 
	d="
M29.179386,36.884495 
	C28.373095,37.164646 27.571980,37.202293 26.378504,37.317337 
	C25.550240,37.289249 25.114336,37.183769 24.343323,37.037437 
	C24.018663,36.823986 24.029112,36.651386 23.969242,36.229134 
	C23.898922,35.979485 24.106993,36.127480 24.562363,36.086472 
	C26.008820,35.710594 26.999908,35.375729 28.239122,35.175770 
	C28.737488,35.593727 28.987728,35.876774 29.237968,36.159824 
	C29.237968,36.159824 29.184565,36.641991 29.179386,36.884495 
z"/>
<path fill="#657E8A" opacity="1.000000" stroke="none" 
	d="
M29.425056,35.958992 
	C28.987728,35.876774 28.737488,35.593727 28.229820,34.969780 
	C27.972391,34.628880 27.942312,34.218407 28.217354,34.144356 
	C28.675480,34.019936 28.858566,33.969559 29.041653,33.919186 
	C29.231815,34.532177 29.421980,35.145164 29.425056,35.958992 
z"/>
<path fill="#604B45" opacity="1.000000" stroke="none" 
	d="
M29.033188,33.659988 
	C28.858566,33.969559 28.675480,34.019936 27.985157,33.974834 
	C27.257156,33.568447 27.036388,33.257538 26.815622,32.946625 
	C26.815622,32.946625 26.847013,32.514439 26.886410,32.301834 
	C27.438881,32.298546 27.951958,32.507866 28.729214,32.800125 
	C29.003839,33.055641 29.014282,33.228218 29.033188,33.659988 
z"/>
<path fill="#382B30" opacity="1.000000" stroke="none" 
	d="
M29.946934,22.278683 
	C30.783350,22.003658 31.617142,21.996754 32.874435,22.000870 
	C32.428959,22.373220 31.559980,22.734552 30.326321,23.089333 
	C29.955864,22.904123 29.950085,22.725462 29.946934,22.278683 
z"/>
<path fill="#1F1D1D" opacity="1.000000" stroke="none" 
	d="
M28.093227,45.154907 
	C28.000114,44.725006 27.999758,44.539261 28.044823,44.076706 
	C28.552158,43.850018 29.014071,43.900139 29.864735,44.137871 
	C30.359125,44.519047 30.521927,44.607983 30.741890,44.592285 
	C30.741890,44.592285 30.864815,44.784058 30.795712,45.013367 
	C30.726606,45.242676 30.958595,45.536331 30.958595,45.536331 
	C30.493469,45.566956 30.028341,45.597580 29.277920,45.831272 
	C28.723743,45.822582 28.454865,45.610821 28.093227,45.154907 
z"/>
<path fill="#7C715E" opacity="1.000000" stroke="none" 
	d="
M24.587830,48.865990 
	C24.721827,47.929436 25.087734,47.319328 25.750521,46.760735 
	C25.638178,47.605637 25.228956,48.399033 24.587830,48.865990 
z"/>
<path fill="#AAABAF" opacity="1.000000" stroke="none" 
	d="
M28.397377,48.988579 
	C28.621258,49.221741 28.609810,49.561939 28.329103,49.982971 
	C28.093914,49.741074 28.127983,49.418346 28.397377,48.988579 
z"/>
<path fill="#726D6D" opacity="1.000000" stroke="none" 
	d="
M31.000809,45.924141 
	C30.958595,45.536331 30.726606,45.242676 30.857567,45.108997 
	C31.247805,44.965874 31.507078,44.956429 32.154087,44.980675 
	C32.541821,45.014370 32.515308,45.438251 32.306976,45.477165 
	C32.060265,45.777966 32.021889,46.039845 31.895424,46.688786 
	C31.807333,47.075848 31.500271,47.097881 31.346699,47.087730 
	C31.143095,46.822372 31.093060,46.567162 31.000809,45.924141 
z"/>
<path fill="#111217" opacity="1.000000" stroke="none" 
	d="
M30.809467,44.450752 
	C30.521927,44.607983 30.359125,44.519047 30.210320,44.184719 
	C30.167150,44.043957 30.538343,43.998482 30.724163,43.997871 
	C30.909985,43.997265 30.877045,44.309216 30.809467,44.450752 
z"/>
<path fill="#5886A2" opacity="1.000000" stroke="none" 
	d="
M26.561260,33.078194 
	C27.036388,33.257538 27.257156,33.568447 27.710117,34.048882 
	C27.942312,34.218407 27.972391,34.628880 27.981693,34.834869 
	C26.999908,35.375729 26.008820,35.710594 24.689396,36.073757 
	C24.277584,35.911335 24.194111,35.720615 24.045204,35.224098 
	C24.755482,34.348785 25.531189,33.779270 26.561260,33.078194 
z"/>
</svg>